<svg width="194" height="150" viewBox="0 0 194 150" fill="none" xmlns="http://www.w3.org/2000/svg">
<path fill-rule="evenodd" clip-rule="evenodd" d="M68.025 18.75H156.25C161.223 18.75 165.992 20.7254 169.508 24.2417C173.025 27.7581 175 32.5272 175 37.5V112.5C175 117.473 173.025 122.242 169.508 125.758C165.992 129.275 161.223 131.25 156.25 131.25H68.025C65.2137 131.249 62.4384 130.617 59.9047 129.398C57.371 128.18 55.1437 126.408 53.3875 124.213L22.45 85.55C20.0521 82.5565 18.7455 78.8355 18.7455 75C18.7455 71.1645 20.0521 67.4435 22.45 64.45L53.3875 25.7875C55.141 23.5954 57.3644 21.8251 59.8935 20.607C62.4226 19.389 65.1929 18.7544 68 18.75H68.025ZM38.7375 14.075C42.2511 9.68264 46.7078 6.13696 51.7776 3.70054C56.8473 1.26413 62.4002 -0.000609969 68.025 2.20691e-07H156.25C166.196 2.20691e-07 175.734 3.95088 182.767 10.9835C189.799 18.0161 193.75 27.5544 193.75 37.5V112.5C193.75 122.446 189.799 131.984 182.767 139.017C175.734 146.049 166.196 150 156.25 150H68.025C62.4002 150.001 56.8473 148.736 51.7776 146.299C46.7078 143.863 42.2511 140.317 38.7375 135.925L7.8125 97.2625C2.75519 90.9445 -0.000244141 83.0928 -0.000244141 75C-0.000244141 66.9072 2.75519 59.0555 7.8125 52.7375L38.7375 14.075ZM91 43.375C89.2228 41.719 86.8722 40.8175 84.4435 40.8603C82.0147 40.9032 79.6974 41.8871 77.9797 43.6047C76.2621 45.3224 75.2782 47.6397 75.2353 50.0685C75.1925 52.4972 76.094 54.8478 77.75 56.625L96.125 75L77.75 93.375C76.8289 94.2333 76.0901 95.2683 75.5777 96.4183C75.0653 97.5683 74.7898 98.8097 74.7676 100.068C74.7454 101.327 74.977 102.578 75.4485 103.745C75.92 104.912 76.6218 105.973 77.512 106.863C78.4023 107.753 79.4627 108.455 80.63 108.927C81.7974 109.398 83.0477 109.63 84.3065 109.607C85.5653 109.585 86.8067 109.31 87.9567 108.797C89.1067 108.285 90.1417 107.546 91 106.625L109.375 88.25L127.75 106.625C128.608 107.546 129.643 108.285 130.793 108.797C131.943 109.31 133.185 109.585 134.443 109.607C135.702 109.63 136.953 109.398 138.12 108.927C139.287 108.455 140.348 107.753 141.238 106.863C142.128 105.973 142.83 104.912 143.302 103.745C143.773 102.578 144.005 101.327 143.982 100.068C143.96 98.8097 143.685 97.5683 143.172 96.4183C142.66 95.2683 141.921 94.2333 141 93.375L122.625 75L141 56.625C142.656 54.8478 143.558 52.4972 143.515 50.0685C143.472 47.6397 142.488 45.3224 140.77 43.6047C139.053 41.8871 136.735 40.9032 134.307 40.8603C131.878 40.8175 129.527 41.719 127.75 43.375L109.375 61.75L91 43.375Z" fill="#FF0000"/>
</svg>
