<svg width="159" height="159" viewBox="0 0 159 159" fill="none" xmlns="http://www.w3.org/2000/svg" >
<path d="M33.3334 42.3333H25C20.5798 42.3333 16.3405 44.0893 13.2149 47.2149C10.0893 50.3405 8.33337 54.5797 8.33337 59V134C8.33337 138.42 10.0893 142.659 13.2149 145.785C16.3405 148.911 20.5798 150.667 25 150.667H100C104.42 150.667 108.66 148.911 111.785 145.785C114.911 142.659 116.667 138.42 116.667 134V125.667" stroke="#FFFFFF" stroke-width="10" stroke-linecap="round" stroke-linejoin="round" />
<path d="M108.333 25.6666L133.333 50.6666M144.875 38.875C148.157 35.5929 150.001 31.1415 150.001 26.5C150.001 21.8584 148.157 17.407 144.875 14.125C141.593 10.8429 137.142 8.99908 132.5 8.99908C127.858 8.99908 123.407 10.8429 120.125 14.125L50 84V109H75L144.875 38.875Z" stroke="#FFFFFF" stroke-width="10" stroke-linecap="round" stroke-linejoin="round" fill="#0E5381"/>
</svg>
