<svg width="26" height="26" viewBox="0 0 26 26" fill="none" xmlns="http://www.w3.org/2000/svg">
<path d="M24.25 24.25L18.8212 18.8213M18.8212 18.8213C19.7499 17.8927 20.4865 16.7902 20.989 15.5769C21.4916 14.3637 21.7503 13.0633 21.7503 11.75C21.7503 10.4368 21.4916 9.13637 20.989 7.92308C20.4865 6.70979 19.7499 5.60737 18.8212 4.67876C17.8926 3.75015 16.7902 3.01354 15.5769 2.51098C14.3636 2.00842 13.0633 1.74976 11.75 1.74976C10.4367 1.74976 9.13635 2.00842 7.92307 2.51098C6.70978 3.01354 5.60736 3.75015 4.67875 4.67876C2.80334 6.55418 1.74974 9.09778 1.74974 11.75C1.74974 14.4022 2.80334 16.9459 4.67875 18.8213C6.55416 20.6967 9.09777 21.7503 11.75 21.7503C14.4022 21.7503 16.9458 20.6967 18.8212 18.8213Z" stroke="#0E5381" stroke-width="2.08333" stroke-linecap="round" stroke-linejoin="round"/>
</svg>
