<svg width="24" height="22" viewBox="0 0 24 22" fill="none" xmlns="http://www.w3.org/2000/svg">
<path d="M12 20.5675L11.0525 19.7112C9.0125 17.8479 7.325 16.2525 5.99 14.925C4.655 13.5983 3.60125 12.4283 2.82875 11.415C2.05708 10.4008 1.5175 9.48375 1.21 8.66375C0.903333 7.84292 0.75 7.0175 0.75 6.1875C0.75 4.5975 1.29 3.2625 2.37 2.1825C3.45 1.1025 4.785 0.5625 6.375 0.5625C7.475 0.5625 8.50625 0.84375 9.46875 1.40625C10.4313 1.96875 11.275 2.78667 12 3.86C12.725 2.78667 13.5687 1.96875 14.5312 1.40625C15.4937 0.84375 16.525 0.5625 17.625 0.5625C19.215 0.5625 20.55 1.1025 21.63 2.1825C22.71 3.2625 23.25 4.5975 23.25 6.1875C23.25 7.0175 23.0967 7.8425 22.79 8.6625C22.4825 9.48333 21.9429 10.4008 21.1712 11.415C20.3987 12.4283 19.3487 13.5983 18.0212 14.925C16.6946 16.2525 15.0029 17.8483 12.9462 19.7125L12 20.5675ZM12 18.875C14 17.0667 15.6458 15.5183 16.9375 14.23C18.2292 12.9408 19.25 11.8221 20 10.8737C20.75 9.92542 21.2708 9.08583 21.5625 8.355C21.8542 7.62333 22 6.90083 22 6.1875C22 4.9375 21.5833 3.89583 20.75 3.0625C19.9167 2.22917 18.875 1.8125 17.625 1.8125C16.63 1.8125 15.7117 2.09667 14.87 2.665C14.0283 3.2325 13.275 4.08792 12.61 5.23125H11.39C10.7083 4.07292 9.95083 3.21333 9.1175 2.6525C8.28417 2.0925 7.37 1.8125 6.375 1.8125C5.14167 1.8125 4.10417 2.22917 3.2625 3.0625C2.42083 3.89583 2 4.9375 2 6.1875C2 6.90083 2.14583 7.62333 2.4375 8.355C2.72917 9.08667 3.25 9.92625 4 10.8737C4.75 11.8212 5.77083 12.9358 7.0625 14.2175C8.35417 15.4992 10 17.0517 12 18.875Z" fill="#0E5381" stroke="#0E5381"/>
</svg>
